<svg xmlns="http://www.w3.org/2000/svg" viewBox="0 0 9835 1713.9"><path fill="#6D6E71" d="M1069.6 296.4v92.2h-11.8v-92.2h-33.7V285h79.4v11.4h-33.9zm165.2 92.1V343h-62.4v45.6h-11.8V285h11.8v46.8h62.4V285h11.8v103.6h-11.8zm94.4-92.1v34h52.2v11.4h-52.2v35.5h60.4v11.3h-72.2V285h70.3v11.4h-58.5z"/><path fill="#D22128" d="M933.7 1098.5l247.5-591.6h47.5l247.5 591.6h-62.5l-76.7-185h-265.8l-75.8 185h-61.7zm271.7-523.3l-121.7 292.5h240l-118.3-292.5zm334.7 523.3V506.9h245c101.7 0 175 94.2 175 185.8 0 96.7-68.3 187.5-170 187.5h-192.5v218.3h-57.5zm57.5-270h189.1c70 0 115-64.2 115-135.8 0-74.2-55-134.2-120-134.2h-184.1v270zm330.1 270l247.5-591.6h47.5l247.5 591.6h-62.5l-76.7-185h-265.8l-75.8 185h-61.7zm271.6-523.3l-121.7 292.5h240l-118.3-292.5zm550.8-71.6c105 0 181.6 53.3 218.3 129.2l-46.7 28.3c-37.5-78.3-110.8-105-175-105-141.7 0-219.1 126.7-219.1 245.8 0 130.8 95.8 249.1 221.6 249.1 66.7 0 145-33.3 182.5-110l48.3 25c-38.3 88.3-143.3 137.5-234.1 137.5-162.5 0-276.6-155-276.6-305 0-142.5 102.4-294.9 280.8-294.9zm777.9 3.3v591.6h-58.3V821.9h-350.8v276.6h-57.5V506.9h57.5v263.3h350.8V506.9h58.3zm531.1 539.9v51.7h-397.5V506.9h390v51.7h-332.5v213.3h290V821h-290v225.8h340z"/><linearGradient id="a" gradientUnits="userSpaceOnUse" x1="-4229.666" y1="-4143.64" x2="-3987.589" y2="-3860.573" gradientTransform="rotate(-65.001 1574.507 -5825.792)"><stop offset="0" stop-color="#f69923"/><stop offset=".312" stop-color="#f79a23"/><stop offset=".838" stop-color="#e97826"/></linearGradient><path fill="url(#a)" d="M729.5 8.1C702.6 24 657.9 68.9 604.6 134l49 92.5c34.4-49.2 69.3-93.4 104.5-131.2 2.7-3 4.1-4.4 4.1-4.4-1.4 1.5-2.7 3-4.1 4.4-11.4 12.6-46 52.9-98.2 133.1 50.2-2.5 127.5-12.8 190.4-23.5 18.7-105-18.4-153-18.4-153S784.8-24.6 729.5 8.1z"/><path fill="none" d="M646.5 535.5c.4-.1.7-.1 1.1-.2l-7.1.8-1.2.6 7.2-1.2zm-50 165.6c-4 .9-8.1 1.6-12.3 2.2 4.2-.6 8.3-1.3 12.3-2.2zm-339.8 371.6c.5-1.4 1-2.8 1.6-4.1 10.8-28.5 21.5-56.1 32-83.1 11.9-30.2 23.6-59.5 35.2-87.9 12.2-29.9 24.3-58.8 36.1-86.8 12.5-29.3 24.7-57.5 36.8-84.7 9.8-22.1 19.5-43.5 29-64.2 3.2-6.9 6.3-13.7 9.5-20.5 6.2-13.4 12.4-26.6 18.5-39.4 5.6-11.9 11.2-23.5 16.8-34.9 1.8-3.8 3.7-7.6 5.5-11.3l.9-1.8-6 .7-4.8-9.4c-.5.9-.9 1.8-1.4 2.7-8.6 17.1-17.1 34.3-25.6 51.7-4.9 10-9.7 20.1-14.6 30.3-13.4 28.1-26.5 56.5-39.5 85-13.1 28.8-25.9 57.8-38.5 86.9-12.4 28.5-24.5 57.1-36.3 85.5-11.8 28.4-23.4 56.8-34.7 84.9-11.8 29.4-23.3 58.5-34.4 87.3-2.5 6.5-5 13-7.5 19.4-8.9 23.2-17.6 46.2-26.1 68.8l7.5 14.9 6.7-.7c.2-.7.5-1.4.7-2 11.1-30.1 21.9-59.1 32.6-87.3zm324.5-368.9z"/><path fill="#BE202E" d="M564.9 784.6c-6.3 1.1-12.7 2.2-19.3 3.4 0 0-.1 0-.1.1 3.3-.5 6.6-1 9.9-1.6 3.2-.6 6.4-1.2 9.5-1.9z"/><path opacity=".35" fill="#BE202E" d="M564.9 784.6c-6.3 1.1-12.7 2.2-19.3 3.4 0 0-.1 0-.1.1 3.3-.5 6.6-1 9.9-1.6 3.2-.6 6.4-1.2 9.5-1.9z"/><path fill="#BE202E" d="M581.3 703.7c0 .1 0 .1 0 0-.1 0-.1.1-.1.1 1-.1 2.1-.3 3.1-.5 4.2-.6 8.3-1.3 12.3-2.2-5 .9-10.1 1.8-15.3 2.6z"/><path opacity=".35" fill="#BE202E" d="M581.3 703.7c0 .1 0 .1 0 0-.1 0-.1.1-.1.1 1-.1 2.1-.3 3.1-.5 4.2-.6 8.3-1.3 12.3-2.2-5 .9-10.1 1.8-15.3 2.6z"/><linearGradient id="b" gradientUnits="userSpaceOnUse" x1="-6021.277" y1="-4174.884" x2="-4294.186" y2="-4174.884" gradientTransform="rotate(-65.001 1574.507 -5825.792)"><stop offset=".323" stop-color="#9e2064"/><stop offset=".63" stop-color="#c92037"/><stop offset=".751" stop-color="#cd2335"/><stop offset="1" stop-color="#e97826"/></linearGradient><path fill="url(#b)" d="M509.2 465.4c14.9-27.8 30-55 45.2-81.5 15.8-27.5 31.8-54.2 48-79.9 1-1.5 1.9-3.1 2.9-4.6 16-25.3 32.1-49.6 48.4-72.9l-49-92.5c-3.7 4.5-7.4 9.1-11.1 13.7-14.1 17.6-28.8 36.5-43.8 56.6-17 22.6-34.4 46.8-52.1 72.2-16.3 23.4-32.9 48-49.5 73.4-14.1 21.6-28.3 43.9-42.4 66.7-.5.8-1 1.7-1.6 2.6l63.7 125.9c13.5-27 27.3-53.6 41.3-79.7z"/><linearGradient id="c" gradientUnits="userSpaceOnUse" x1="-5812.794" y1="-4001.659" x2="-4783.616" y2="-4001.659" gradientTransform="rotate(-65.001 1574.507 -5825.792)"><stop offset="0" stop-color="#282662"/><stop offset=".095" stop-color="#662e8d"/><stop offset=".788" stop-color="#9f2064"/><stop offset=".949" stop-color="#cd2032"/></linearGradient><path fill="url(#c)" d="M218.8 1174.8c-8.4 23.2-16.9 46.8-25.4 70.9-.1.4-.2.7-.4 1.1l-3.6 10.2c-5.7 16.3-10.7 30.9-22.1 64.2 18.8 8.6 33.9 31.1 48.1 56.7-1.5-26.5-12.5-51.4-33.3-70.7 92.6 4.2 172.4-19.2 213.6-86.9 3.7-6 7.1-12.4 10.1-19.1-18.8 23.8-42 33.8-85.7 31.4-.1 0-.2.1-.3.1.1 0 .2-.1.3-.1 64.4-28.8 96.7-56.5 125.3-102.3 6.8-10.9 13.3-22.7 20.1-35.9-56.3 57.8-121.6 74.3-190.3 61.8l-51.6 5.7c-1.6 4.2-3.2 8.5-4.8 12.9z"/><linearGradient id="d" gradientUnits="userSpaceOnUse" x1="-5924.274" y1="-4190.977" x2="-4197.184" y2="-4190.977" gradientTransform="rotate(-65.001 1574.507 -5825.792)"><stop offset=".323" stop-color="#9e2064"/><stop offset=".63" stop-color="#c92037"/><stop offset=".751" stop-color="#cd2335"/><stop offset="1" stop-color="#e97826"/></linearGradient><path fill="url(#d)" d="M242.9 1059.3c11.1-28.8 22.6-57.9 34.4-87.3 11.3-28.1 22.9-56.5 34.7-84.9 11.8-28.5 24-57 36.3-85.5 12.6-29 25.4-58 38.5-86.9 12.9-28.5 26.1-56.9 39.5-85 4.8-10.1 9.7-20.2 14.6-30.3 8.4-17.4 17-34.6 25.6-51.7.5-.9.9-1.8 1.4-2.7l-63.7-125.9c-1 1.7-2.1 3.4-3.1 5.1-14.9 24.3-29.6 49.1-44.1 74.4-14.7 25.6-29.1 51.7-43.1 78.1-11.9 22.3-23.5 44.8-34.7 67.5-2.3 4.6-4.5 9.2-6.7 13.7-13.9 28.6-26.4 56.2-37.8 82.8-12.9 30.1-24.2 58.8-34.1 86.1-6.5 17.9-12.5 35.2-17.9 51.9-4.5 14.2-8.7 28.4-12.7 42.6-9.5 33.4-17.7 66.7-24.5 99.8l64 126.4c8.5-22.6 17.1-45.6 26.1-68.8 2.3-6.4 4.8-12.9 7.3-19.4z"/><linearGradient id="e" gradientUnits="userSpaceOnUse" x1="-5798.316" y1="-4167.611" x2="-4890.678" y2="-4167.611" gradientTransform="rotate(-65.001 1574.507 -5825.792)"><stop offset="0" stop-color="#282662"/><stop offset=".095" stop-color="#662e8d"/><stop offset=".788" stop-color="#9f2064"/><stop offset=".949" stop-color="#cd2032"/></linearGradient><path fill="url(#e)" d="M144.4 1025.6c-8 40.5-13.8 80.8-16.6 120.8l-.3 4.2c-20-32-73.5-63.3-73.4-63 38.3 55.5 67.4 110.7 71.7 164.8-20.5 4.2-48.6-1.9-81.1-13.8 33.9 31.1 59.3 39.7 69.2 42-31.1 1.9-63.5 23.3-96.1 47.9 47.7-19.5 86.3-27.2 113.9-20.9C87.9 1431.6 44 1568.5.1 1713.8c13.5-4 21.5-13 26-25.3 7.8-26.3 59.8-199 141.2-425.9 2.3-6.5 4.6-12.9 7-19.5.7-1.8 1.3-3.6 2-5.4 8.6-23.8 17.5-48.1 26.7-72.9 2.1-5.6 4.2-11.3 6.3-17 0-.1.1-.2.1-.3l-64-126.4c-.4 1.5-.7 3-1 4.5z"/><linearGradient id="f" gradientUnits="userSpaceOnUse" x1="-5924.274" y1="-4012.23" x2="-4197.184" y2="-4012.23" gradientTransform="rotate(-65.001 1574.507 -5825.792)"><stop offset=".323" stop-color="#9e2064"/><stop offset=".63" stop-color="#c92037"/><stop offset=".751" stop-color="#cd2335"/><stop offset="1" stop-color="#e97826"/></linearGradient><path fill="url(#f)" d="M477.7 555.7c-1.8 3.7-3.7 7.5-5.5 11.3-5.5 11.4-11.1 23-16.8 34.9-6.1 12.8-12.3 26-18.5 39.4-3.1 6.8-6.3 13.6-9.5 20.5-9.5 20.7-19.2 42.1-29 64.2-12.1 27.2-24.3 55.4-36.8 84.7-11.9 27.9-23.9 56.8-36.1 86.8-11.6 28.4-23.3 57.7-35.2 87.9-10.6 27-21.3 54.6-32 83.1-.5 1.4-1 2.8-1.6 4.1-10.7 28.3-21.5 57.3-32.4 87-.2.7-.5 1.4-.7 2l51.6-5.7c-1-.2-2-.3-3.1-.5 61.6-7.7 143.6-53.7 196.5-110.6 24.4-26.2 46.5-57.1 67-93.3 15.2-26.9 29.6-56.8 43.2-89.8 11.9-28.9 23.3-60.1 34.4-94-14.2 7.5-30.4 12.9-48.3 16.7-3.1.7-6.3 1.3-9.6 1.9-3.2.6-6.5 1.1-9.9 1.6 0 0 .1 0 .1-.1 57.5-22.1 93.7-64.8 120.1-117.1-15.1 10.3-39.7 23.8-69.2 30.3-4 .9-8.1 1.6-12.3 2.2-1 .1-2.1.3-3.1.5h.2c19.9-8.3 36.8-17.7 51.4-28.7 3.1-2.4 6.2-4.8 9.1-7.3 4.5-3.8 8.7-7.9 12.7-12.2 2.6-2.7 5.1-5.5 7.5-8.4 5.7-6.8 11.1-14.2 16.1-22.1 1.5-2.4 3-4.9 4.5-7.5 1.9-3.7 3.7-7.3 5.5-10.8 8-16.1 14.5-30.5 19.6-43.2 2.6-6.3 4.8-12.2 6.7-17.6.8-2.2 1.5-4.3 2.2-6.3 2-6.1 3.7-11.5 5-16.2 2-7.1 3.1-12.7 3.8-16.8-1.9 1.5-4.2 3.1-6.7 4.6-17.3 10.4-47.1 19.8-71.1 24.2l47.3-5.2-47.3 5.2c-.4.1-.7.1-1.1.2l-7.2 1.2 1.2-.6-161.9 17.7c-.2.6-.5 1.2-.8 1.8z"/><linearGradient id="g" gradientUnits="userSpaceOnUse" x1="-6031.412" y1="-4021.106" x2="-4304.321" y2="-4021.106" gradientTransform="rotate(-65.001 1574.507 -5825.792)"><stop offset=".323" stop-color="#9e2064"/><stop offset=".63" stop-color="#c92037"/><stop offset=".751" stop-color="#cd2335"/><stop offset="1" stop-color="#e97826"/></linearGradient><path fill="url(#g)" d="M660 228.4c-14.4 22.1-30.1 47.2-47.1 75.6l-2.7 4.5c-14.6 24.6-30.1 51.6-46.4 81.2-14.1 25.5-28.8 52.9-44 82.4-13.3 25.7-27 52.9-41.1 81.7l161.9-17.7c47.2-21.7 68.3-41.3 88.7-69.7 5.4-7.8 10.9-16 16.3-24.5 16.6-26 32.9-54.6 47.5-83 14.1-27.4 26.5-54.7 36-79.2 6.1-15.6 10.9-30.1 14.3-42.8 2.9-11.2 5.3-21.9 7.1-32.1-63 10.8-140.3 21.1-190.5 23.6z"/><path fill="#BE202E" d="M555.4 786.4c-3.2.6-6.5 1.1-9.9 1.6 3.3-.5 6.6-1 9.9-1.6z"/><path opacity=".35" fill="#BE202E" d="M555.4 786.4c-3.2.6-6.5 1.1-9.9 1.6 3.3-.5 6.6-1 9.9-1.6z"/><linearGradient id="h" gradientUnits="userSpaceOnUse" x1="-5924.274" y1="-3959.067" x2="-4197.184" y2="-3959.067" gradientTransform="rotate(-65.001 1574.507 -5825.792)"><stop offset=".323" stop-color="#9e2064"/><stop offset=".63" stop-color="#c92037"/><stop offset=".751" stop-color="#cd2335"/><stop offset="1" stop-color="#e97826"/></linearGradient><path fill="url(#h)" d="M555.4 786.4c-3.2.6-6.5 1.1-9.9 1.6 3.3-.5 6.6-1 9.9-1.6z"/><path fill="#BE202E" d="M581.2 703.8c1-.1 2.1-.3 3.1-.5-1.1.2-2.1.4-3.1.5z"/><path opacity=".35" fill="#BE202E" d="M581.2 703.8c1-.1 2.1-.3 3.1-.5-1.1.2-2.1.4-3.1.5z"/><linearGradient id="i" gradientUnits="userSpaceOnUse" x1="-5924.274" y1="-3965.15" x2="-4197.184" y2="-3965.15" gradientTransform="rotate(-65.001 1574.507 -5825.792)"><stop offset=".323" stop-color="#9e2064"/><stop offset=".63" stop-color="#c92037"/><stop offset=".751" stop-color="#cd2335"/><stop offset="1" stop-color="#e97826"/></linearGradient><path fill="url(#i)" d="M581.2 703.8c1-.1 2.1-.3 3.1-.5-1.1.2-2.1.4-3.1.5z"/><path fill="#6D6E71" d="M4552.4 508.2c12 3.6 22.6 8.4 31.5 14.5l-10.5 23c-9.2-6.1-19-10.6-29.4-13.6-10.4-3-20.3-4.5-29.7-4.5-13.8 0-24.9 2.5-33.2 7.5-8.3 5-12.4 12-12.4 21.1 0 7.8 2.3 14.2 6.9 19.3 4.6 5.1 10.3 9 17.3 11.9 6.9 2.8 16.4 6.1 28.5 9.8 14.6 4.7 26.4 9.1 35.3 13.1 8.9 4.1 16.5 10.1 22.9 18.1 6.3 8 9.5 18.5 9.5 31.5 0 11.9-3.2 22.2-9.6 31.1-6.4 8.9-15.5 15.7-27.3 20.6-11.8 4.9-25.3 7.3-40.6 7.3s-30.2-3-44.7-8.9c-14.4-5.9-26.8-13.9-37.2-23.8l10.9-22c9.8 9.6 21 17 33.8 22.3 12.8 5.3 25.3 7.9 37.4 7.9 15.5 0 27.8-3 36.8-9 9-6 13.4-14.1 13.4-24.3 0-8-2.3-14.5-7-19.7-4.7-5.2-10.5-9.2-17.4-12.1-6.9-2.9-16.4-6.1-28.5-9.7-14.4-4.3-26.2-8.4-35.2-12.4-9-4-16.6-9.9-22.9-17.8-6.2-7.9-9.3-18.2-9.3-31.1 0-11.1 3.1-20.8 9.2-29.1 6.1-8.4 14.8-14.8 26.1-19.4 11.3-4.6 24.2-6.9 38.9-6.9 12.3-.1 24.4 1.7 36.5 5.3zm317.9 9.4c17.1 9.6 30.7 22.6 40.7 39.1 10 16.4 15 34.5 15 54.2 0 19.8-5 38-15 54.5s-23.6 29.6-40.7 39.3c-17.1 9.7-35.9 14.5-56.2 14.5-20.6 0-39.5-4.8-56.6-14.5s-30.7-22.8-40.7-39.3c-10-16.5-15-34.7-15-54.5 0-19.8 5-38 15-54.5s23.6-29.5 40.7-39 36-14.3 56.6-14.3c20.3 0 39.1 4.8 56.2 14.5zm-99.8 20.2c-13.4 7.6-24 17.8-32 30.6-8 12.9-12 27-12 42.4 0 15.5 4 29.8 12 42.7 8 13 18.6 23.2 32 30.7 13.3 7.5 27.9 11.3 43.6 11.3 15.7 0 30.2-3.8 43.4-11.3 13.2-7.5 23.7-17.8 31.6-30.7 7.9-12.9 11.8-27.2 11.8-42.7s-3.9-29.7-11.8-42.5-18.4-23-31.7-30.6c-13.3-7.6-27.7-11.4-43.3-11.4-15.7.1-30.3 3.9-43.6 11.5zm309.8-10.5v75.3h100.1v23.6h-100.1V718h-24.5V503.7h136.1v23.6h-111.6zm310.4 0V718h-24.5V527.3h-69.6v-23.6h164.2v23.6h-70.1zM5777.5 718l-57.8-180.5-58.6 180.5h-25l-71.7-214.3h26.3l58.9 185.9 58.1-185.6 24.5-.3 58.7 185.9 58.1-185.9h25.4L5802.6 718h-25.1zm219.2-54.1l-23.9 54.1h-26l96.1-214.3h25.4l95.8 214.3h-26.6l-23.9-54.1h-116.9zm58.2-132.2l-47.7 108.6h96.1l-48.4-108.6zm322.1 118c-6.1.4-10.9.6-14.3.6h-56.9V718h-24.5V503.7h81.4c26.7 0 47.4 6.3 62.2 18.8 14.8 12.6 22.2 30.3 22.2 53.2 0 17.5-4.1 32.2-12.4 44-8.3 11.8-20.1 20.3-35.6 25.5l50.1 72.8h-27.8l-44.4-68.3zm30.7-35.7c10.5-8.6 15.8-21.1 15.8-37.7 0-16.1-5.3-28.3-15.8-36.6s-25.5-12.4-45.1-12.4h-56.9v99.5h56.9c19.6.1 34.6-4.2 45.1-12.8zm200.5-86.7v70.4h108v23.6h-108v73.4h124.9V718h-149.4V503.7H6729v23.6h-120.8zm466.6 0v75.3h100.1v23.6h-100.1V718h-24.5V503.7h136.1v23.6h-111.6zm382.9-9.7c17.1 9.6 30.7 22.6 40.7 39.1 10 16.4 15 34.5 15 54.2 0 19.8-5 38-15 54.5s-23.6 29.6-40.7 39.3c-17.1 9.7-35.9 14.5-56.2 14.5-20.6 0-39.5-4.8-56.6-14.5s-30.7-22.8-40.7-39.3c-10-16.5-15-34.7-15-54.5 0-19.8 5-38 15-54.5s23.6-29.5 40.7-39 36-14.3 56.6-14.3c20.3 0 39 4.8 56.2 14.5zm-99.8 20.2c-13.4 7.6-24 17.8-32 30.6-8 12.9-12 27-12 42.4 0 15.5 4 29.8 12 42.7 8 13 18.6 23.2 32 30.7 13.3 7.5 27.9 11.3 43.6 11.3 15.7 0 30.2-3.8 43.4-11.3 13.2-7.5 23.7-17.8 31.6-30.7 7.9-12.9 11.8-27.2 11.8-42.7s-3.9-29.7-11.8-42.5-18.4-23-31.7-30.6c-13.3-7.6-27.7-11.4-43.3-11.4-15.8.1-30.3 3.9-43.6 11.5zm436.9 157.7c-15.9 15.8-37.9 23.7-65.9 23.7-28.2 0-50.3-7.9-66.3-23.7-16-15.8-24-37.7-24-65.7V503.7h24.5v126.1c0 20.6 5.9 36.7 17.6 48.3 11.8 11.6 27.8 17.4 48.1 17.4 20.4 0 36.4-5.7 48-17.3 11.6-11.5 17.3-27.7 17.3-48.5v-126h24.5v126.1c.1 28-7.9 49.9-23.8 65.7zm320.3 22.5l-128.5-172v172h-24.5V503.7h25.4L8116 676V503.7h24.2V718h-25.1zm314.2-200.1c16.7 9.4 29.9 22.3 39.6 38.6 9.7 16.3 14.6 34.4 14.6 54.5s-4.9 38.2-14.6 54.5c-9.7 16.3-23 29.2-40 38.6-16.9 9.4-35.8 14-56.5 14h-85.8V503.7h86.7c20.7 0 39.3 4.7 56 14.2zm-118.1 176.8h62.5c15.7 0 30.1-3.6 43-10.8 12.9-7.2 23.2-17.2 30.7-30 7.5-12.7 11.3-27 11.3-42.7 0-15.7-3.8-30-11.5-42.7-7.7-12.7-18-22.7-31.1-30.1-13.1-7.4-27.5-11.1-43.3-11.1h-61.6v167.4zm311.6-30.8l-23.9 54.1h-26l96.1-214.3h25.4l95.8 214.3h-26.6l-23.9-54.1h-116.9zm58.2-132.2l-47.7 108.6h96.1L8681 531.7zm269.8-4.4V718h-24.5V527.3h-69.6v-23.6h164.2v23.6h-70.1zM9138.9 718V503.7h24.5V718h-24.5zm323.3-200.4c17.1 9.6 30.7 22.6 40.7 39.1 10 16.4 15 34.5 15 54.2 0 19.8-5 38-15 54.5s-23.6 29.6-40.7 39.3c-17.1 9.7-35.9 14.5-56.2 14.5-20.6 0-39.5-4.8-56.6-14.5s-30.7-22.8-40.7-39.3c-10-16.5-15-34.7-15-54.5 0-19.8 5-38 15-54.5s23.6-29.5 40.7-39 36-14.3 56.6-14.3c20.4 0 39.1 4.8 56.2 14.5zm-99.8 20.2c-13.4 7.6-24 17.8-32 30.6-8 12.9-12 27-12 42.4 0 15.5 4 29.8 12 42.7 8 13 18.6 23.2 32 30.7 13.3 7.5 27.9 11.3 43.6 11.3 15.7 0 30.2-3.8 43.4-11.3 13.2-7.5 23.7-17.8 31.6-30.7 7.9-12.9 11.8-27.2 11.8-42.7s-3.9-29.7-11.8-42.5-18.4-23-31.7-30.6c-13.3-7.6-27.7-11.4-43.3-11.4-15.7.1-30.2 3.9-43.6 11.5zM9800.8 718l-128.5-172v172h-24.5V503.7h25.4L9801.7 676V503.7h24.2V718h-25.1zM4204.9 500.9c9 9 13.5 19.9 13.5 32.6 0 12.7-4.5 23.6-13.5 32.7-9 9.1-20 13.7-32.8 13.7-12.9 0-23.8-4.5-32.7-13.5-8.9-9-13.4-19.9-13.4-32.6 0-12.7 4.5-23.6 13.5-32.7 9-9.1 19.9-13.7 32.7-13.7 12.8 0 23.7 4.5 32.7 13.5zm-3.9 61.5c7.9-8 11.8-17.6 11.8-28.8s-3.9-20.7-11.7-28.6c-7.8-7.9-17.4-11.9-28.7-11.9s-20.9 4-28.8 11.9c-7.8 8-11.8 17.6-11.8 28.8s3.9 20.8 11.6 28.7c7.8 7.9 17.3 11.9 28.6 11.9s21.1-4 29-12zm-6.5-37.7c0 8.3-3.6 13.5-10.9 15.6l13.3 18h-10.7l-12-16.7h-11v16.7h-8.7v-50h18.8c7.6 0 13 1.3 16.3 3.9 3.3 2.6 4.9 6.8 4.9 12.5zm-11.1 7c1.7-1.4 2.6-3.8 2.6-7.1s-.9-5.6-2.7-6.8c-1.8-1.3-4.9-1.9-9.5-1.9h-10.6v18h10.4c4.8 0 8-.7 9.8-2.2zm357.2 386.5c21.1 0 37.7 6.1 49.6 18.4 11.9 12.3 17.9 29.2 17.9 50.8V1097h-26.3V994.4c0-15.7-4.4-28-13.3-36.8s-21.2-13.2-36.9-13.2c-18.7.2-33.3 6.3-44 18.2-10.7 11.9-16 27.5-16 46.9v87.4h-26.3V846.6h26.3V959c11.5-26.8 34.6-40.4 69-40.8zm283.1 145.4l7.4 21.3c-12.8 8.8-26.2 13.3-40.2 13.5-13.7 0-24.7-4.2-32.9-12.7-8.2-8.4-12.3-21.1-12.3-38V946.2h-25.6v-21.3h25.6V878h26v46.9l56.3-.3v21.6h-56.3v96.8c0 19.8 7.9 29.7 23.6 29.7 9.3 0 18.7-3.1 28.4-9.1zm204.1 0l7.4 21.3c-12.8 8.8-26.2 13.3-40.2 13.5-13.7 0-24.7-4.2-32.9-12.7-8.2-8.4-12.3-21.1-12.3-38V946.2h-25.6v-21.3h25.6V878h26v46.9l56.3-.3v21.6h-56.3v96.8c0 19.8 7.9 29.7 23.6 29.7 9.3 0 18.7-3.1 28.4-9.1zm216.3-145.4c25.2 0 45.7 8.4 61.6 25.3 15.9 16.9 23.8 38.6 23.8 65.1 0 26.3-7.8 47.8-23.5 64.5-15.6 16.6-36 25-61.2 25-32.2 0-55.2-13-69.2-39.1v103.6h-26.3V919.2h26.3v38.4c13.9-26.3 36.8-39.4 68.5-39.4zm-4.7 155.8c18.4 0 33.6-6.2 45.5-18.6 11.9-12.3 17.9-28.2 17.9-47.6 0-19.1-6-34.9-17.9-47.4-11.9-12.5-27.1-18.7-45.5-18.7-18.7 0-34 6.2-45.9 18.6-11.9 12.4-17.9 28.2-17.9 47.6 0 19.3 6 35.2 17.9 47.6 11.9 12.3 27.2 18.5 45.9 18.5zm210.5-109.6c4.5 0 8.3 1.7 11.5 5.1 3.2 3.4 4.7 7.5 4.7 12.5s-1.6 9.1-4.7 12.5c-3.2 3.4-7 5.1-11.5 5.1-4.7 0-8.7-1.7-11.8-5.1-3.2-3.4-4.7-7.5-4.7-12.5s1.6-9.1 4.7-12.5c3.1-3.4 7.1-5.1 11.8-5.1zm0 100.2c4.5 0 8.3 1.7 11.5 5 3.2 3.4 4.7 7.5 4.7 12.5 0 4.9-1.6 9.1-4.7 12.5-3.2 3.4-7 5.1-11.5 5.1-4.7 0-8.7-1.7-11.8-5.1-3.2-3.4-4.7-7.5-4.7-12.5 0-4.9 1.6-9.1 4.7-12.5 3.1-3.3 7.1-5 11.8-5zm124.2 73.5h-22.9l105.3-317.8h23.3l-105.7 317.8zm179.5 0h-22.9L5836 820.3h23.3l-105.7 317.8zm386.9-41.1h-27.3l-52.3-144.4-52 144.4h-27.3l-66.5-177.8h27.7l52.6 150.5 51.6-150.5h27.7l52.3 150.5 52-150.5h27.3l-65.8 177.8zm364.1 0h-27.3L6425 952.6l-52 144.4h-27.3l-66.5-177.8h27.7l52.6 150.5 51.6-150.5h27.7l52.3 150.5 52-150.5h27.3l-65.8 177.8zm364 0h-27.3L6789 952.6l-52 144.4h-27.3l-66.5-177.8h27.7l52.6 150.5 51.6-150.5h27.7l52.3 150.5 52-150.5h27.3l-65.8 177.8zm166-32.4c4.5 0 8.3 1.7 11.5 5 3.2 3.4 4.7 7.5 4.7 12.5 0 4.9-1.6 9.1-4.7 12.5-3.2 3.4-7 5.1-11.5 5.1-4.7 0-8.7-1.7-11.8-5.1-3.2-3.4-4.7-7.5-4.7-12.5 0-4.9 1.6-9.1 4.7-12.5 3.2-3.3 7.1-5 11.8-5zM7283 1097v-27.3c-14.2 19.1-35.9 28.7-65.1 28.7-18 0-32.6-5.1-43.7-15.4-11.1-10.2-16.7-23.2-16.7-39 0-15.5 5.8-27.8 17.5-37 11.7-9.1 28-13.8 48.9-14h58.4v-10.5c0-13.3-4.1-23.5-12.1-30.7-8.1-7.2-19.9-10.8-35.4-10.8-18 0-36.8 6.7-56.4 20.2l-11.1-19.2c12.6-8.3 24.2-14.4 34.9-18.2s23.2-5.7 37.6-5.7c21.8 0 38.6 5.4 50.4 16.2 11.8 10.8 17.8 25.9 18.1 45.2l.3 117.4H7283zm-60.1-21.6c15.1 0 27.9-3.5 38.6-10.6 10.7-7.1 17.7-16.8 21.1-29.2v-21.3h-55.3c-30.1 0-45.2 9.6-45.2 28.7 0 9.9 3.7 17.8 11.1 23.6 7.4 5.9 17.3 8.8 29.7 8.8zm313.4-157.2c25.2 0 45.7 8.4 61.6 25.3 15.9 16.9 23.8 38.6 23.8 65.1 0 26.3-7.8 47.8-23.5 64.5-15.6 16.6-36 25-61.2 25-32.2 0-55.2-13-69.2-39.1v103.6h-26.3V919.2h26.3v38.4c14-26.3 36.8-39.4 68.5-39.4zm-4.7 155.8c18.4 0 33.6-6.2 45.5-18.6 11.9-12.3 17.9-28.2 17.9-47.6 0-19.1-6-34.9-17.9-47.4-11.9-12.5-27.1-18.7-45.5-18.7-18.7 0-34 6.2-45.9 18.6-11.9 12.4-17.9 28.2-17.9 47.6 0 19.3 6 35.2 17.9 47.6 11.9 12.3 27.2 18.5 45.9 18.5zm319.2 23v-27.3c-14.2 19.1-35.9 28.7-65.1 28.7-18 0-32.6-5.1-43.7-15.4-11.1-10.2-16.7-23.2-16.7-39 0-15.5 5.8-27.8 17.5-37 11.7-9.1 28-13.8 48.9-14h58.4v-10.5c0-13.3-4.1-23.5-12.1-30.7-8.1-7.2-19.9-10.8-35.4-10.8-18 0-36.8 6.7-56.4 20.2l-11.1-19.2c12.6-8.3 24.2-14.4 34.9-18.2 10.7-3.8 23.2-5.7 37.6-5.7 21.8 0 38.6 5.4 50.4 16.2 11.8 10.8 17.8 25.9 18.1 45.2l.3 117.4h-25.6zm-60.1-21.6c15.1 0 27.9-3.5 38.6-10.6 10.7-7.1 17.7-16.8 21.1-29.2v-21.3h-55.3c-30.2 0-45.2 9.6-45.2 28.7 0 9.9 3.7 17.8 11.1 23.6 7.5 5.9 17.4 8.8 29.7 8.8zm287.1-156.9c28.6-.2 51.4 8.5 68.5 26.3l-14.5 18.6c-14.4-13.7-32.1-20.6-53-20.6-18.4 0-33.6 6.1-45.4 18.2-11.8 12.1-17.7 27.9-17.7 47.2s5.9 35.2 17.7 47.4c11.8 12.3 26.9 18.4 45.4 18.4 23.8 0 42.2-7.6 55-22.9l15.2 16.2c-16.9 20.5-40.6 30.7-71.2 30.7-25.9 0-47-8.3-63.4-25-16.4-16.6-24.6-38.2-24.6-64.8 0-26.3 8.3-47.9 24.8-64.6 16.5-16.7 37.6-25.1 63.2-25.1zm288.9-.3c21.1 0 37.7 6.1 49.6 18.4 11.9 12.3 17.9 29.2 17.9 50.8V1097h-26.3V994.4c0-15.7-4.4-28-13.3-36.8s-21.2-13.2-36.9-13.2c-18.7.2-33.3 6.3-44 18.2-10.7 11.9-16 27.5-16 46.9v87.4h-26.3V846.6h26.3V959c11.5-26.8 34.5-40.4 69-40.8zm268.9.3c28.1-.2 49.3 8.7 63.6 26.6 14.3 18 20.8 42.4 19.4 73.2h-145.1c2.2 17.3 9.2 31.1 20.9 41.3 11.7 10.2 26.2 15.4 43.5 15.4 22.5 0 40.8-7.4 55-22.3l14.5 15.5c-17.8 19.8-41.6 29.7-71.5 29.7-26.1 0-47.4-8.3-63.8-25-16.4-16.6-24.6-38.2-24.6-64.8s8.2-48.1 24.6-64.8c16.4-16.5 37.6-24.8 63.5-24.8zm-62.1 78.3H8695c-.9-17.1-6.7-30.7-17.4-40.7-10.7-10-24.7-15-42-15-16.9 0-30.9 5.1-42.2 15.2-11.3 10.1-17.9 23.6-19.9 40.5zm264.5 67.8c4.5 0 8.3 1.7 11.5 5 3.1 3.4 4.7 7.5 4.7 12.5 0 4.9-1.6 9.1-4.7 12.5-3.2 3.4-7 5.1-11.5 5.1-4.7 0-8.7-1.7-11.8-5.1-3.2-3.4-4.7-7.5-4.7-12.5 0-4.9 1.6-9.1 4.7-12.5 3.1-3.3 7.1-5 11.8-5zm145.4-121.1c16.9-16.6 38.5-25 64.8-25 26.3 0 47.9 8.3 64.8 25 16.9 16.6 25.3 38.1 25.3 64.5 0 26.5-8.5 48.2-25.3 64.9-16.9 16.8-38.5 25.1-64.8 25.1-26.3 0-47.9-8.4-64.8-25.1-16.9-16.8-25.3-38.4-25.3-64.9 0-26.4 8.4-47.9 25.3-64.5zm110.7 17.3c-11.9-12.3-27.2-18.4-45.9-18.4s-34 6.1-45.9 18.4c-11.9 12.3-17.9 28.1-17.9 47.4 0 19.6 6 35.5 17.9 47.7 11.9 12.3 27.2 18.4 45.9 18.4s34-6.1 45.9-18.4c11.9-12.3 17.9-28.2 17.9-47.7-.1-19.3-6-35.1-17.9-47.4zm189.2-41.6v39.5c12.2-26.5 33.4-40 63.8-40.5v26.7c-18.4-.2-33.3 4.9-44.5 15.3-11.3 10.5-17.6 24.6-19.2 42.3v94.5H9257V919.2h26.3zm326.7 0v159.2c0 25.9-8.2 46.5-24.5 61.7-16.3 15.3-38 22.9-64.9 22.9-26.3-.2-50.6-8.8-72.9-25.7l12.1-20.2c17.8 14.8 37.7 22.4 59.7 22.6 19.4 0 34.9-5.5 46.6-16.5 11.7-11 17.5-25.7 17.5-44.2v-27c-13 24.7-34.9 37.1-65.4 37.1-23.9 0-43.3-8-58.4-24-15.1-16-22.6-36.7-22.6-62.1 0-24.7 7.4-45 22.3-60.9 14.8-15.9 34.2-23.9 58-24.1 30.6 0 52.6 12.4 66.1 37.1V919h26.4zm-130.8 130c11.4 11.8 25.9 17.7 43.7 17.7s32.3-5.9 43.7-17.7c11.3-11.8 17-26.8 17-45 0-18.4-5.7-33.6-17-45.4-11.4-11.8-25.9-17.7-43.7-17.7s-32.3 5.9-43.7 17.7c-11.3 11.8-17.1 26.9-17.4 45.4.3 18.2 6.1 33.2 17.4 45zm250.2 88.9h-22.9l105.3-317.8h23.3l-105.7 317.8z"/></svg>