<svg xmlns="http://www.w3.org/2000/svg" xmlns:xlink="http://www.w3.org/1999/xlink" width="236" height="60" viewBox="0 0 236 60"><path fill="#5C5D60" d="M77.259 35.6V24.402c0-.179.091-.268.27-.268h1.422c.158 0 .271.064.335.187l2.618 4.221c.02.036.045.051.073.051s.045-.015.061-.051l2.647-4.221c.065-.123.176-.187.331-.187h1.412c.175 0 .268.089.268.268V35.6c0 .177-.093.267-.268.267h-1.412c-.175 0-.266-.09-.266-.267v-7.927c0-.042-.014-.075-.041-.086-.028-.013-.053.008-.078.053l-1.993 3.266c-.066.127-.182.184-.336.184h-.654c-.155 0-.266-.057-.333-.184l-1.998-3.266c-.019-.044-.04-.065-.071-.053-.024.012-.042.044-.042.086V35.6c0 .177-.089.267-.264.267h-1.411c-.179 0-.27-.09-.27-.267m34.911-9.789h-5.633c-.063 0-.102.033-.102.1v3.099c0 .071.038.103.102.103h3.755c.177 0 .272.09.272.27v1.135c0 .181-.095.272-.272.272h-3.755c-.063 0-.102.033-.102.096v3.201c0 .07.038.105.102.105h5.633c.177 0 .264.09.264.265v1.142c0 .18-.087.269-.264.269h-7.408c-.179 0-.27-.088-.27-.269V24.402c0-.179.091-.268.27-.268h7.408c.177 0 .264.089.264.268v1.148c0 .173-.087.261-.264.261m17.621 9.789V24.402c0-.179.086-.268.267-.268h4.022c.793 0 1.487.14 2.095.421.601.278 1.067.68 1.401 1.197.326.522.488 1.122.488 1.821v4.853c0 .702-.162 1.301-.488 1.821-.334.522-.8.918-1.401 1.202-.608.278-1.302.418-2.095.418h-4.022c-.181 0-.267-.088-.267-.267m2.036-1.408h2.335c.59 0 1.062-.188 1.417-.562.354-.373.532-.875.542-1.5v-4.24c0-.636-.178-1.144-.533-1.517-.357-.373-.84-.562-1.444-.562h-2.317c-.061 0-.098.032-.098.103v8.175c0 .068.037.103.098.103m23.79 1.408V24.402c0-.179.086-.268.267-.268h1.408c.179 0 .267.089.267.268V35.6c0 .177-.087.267-.267.267h-1.408c-.181 0-.267-.09-.267-.267m20.02.207a.187.187 0 01-.058-.145V24.338c0-.057.017-.104.058-.139a.186.186 0 01.143-.064h.482a.19.19 0 01.146.064c.04.036.059.082.059.139v10.675c0 .042.023.064.065.064h5.984a.2.2 0 01.145.06.206.206 0 01.055.14v.384a.211.211 0 01-.055.145.217.217 0 01-.145.06h-6.736a.196.196 0 01-.143-.059m26.148-.287a3.363 3.363 0 01-1.358-1.335c-.317-.579-.477-1.243-.477-1.989v-4.39c0-.747.159-1.409.477-1.988a3.35 3.35 0 011.358-1.337c.591-.322 1.267-.479 2.04-.479.772 0 1.453.157 2.042.479.592.315 1.05.765 1.377 1.337.322.58.484 1.241.484 1.988v4.39c0 .746-.162 1.41-.484 1.989a3.411 3.411 0 01-1.377 1.335c-.589.322-1.27.477-2.042.477-.774 0-1.45-.155-2.04-.477m4.225-1.113c.55-.546.83-1.271.83-2.181v-4.434c0-.897-.28-1.621-.83-2.175-.552-.549-1.284-.83-2.186-.83-.895 0-1.618.28-2.161.83-.548.554-.822 1.278-.822 2.175v4.434c0 .91.274 1.635.822 2.181.543.544 1.267.821 2.161.821.902 0 1.634-.277 2.186-.821m26.844-10.208a.196.196 0 01.063.136v.389a.195.195 0 01-.063.138.187.187 0 01-.143.063h-3.314c-.043 0-.07.022-.07.066v10.671a.188.188 0 01-.056.145.217.217 0 01-.146.061h-.483a.2.2 0 01-.143-.061.18.18 0 01-.059-.145V24.991c0-.044-.021-.066-.066-.066h-3.152a.198.198 0 01-.143-.063c-.04-.034-.053-.084-.053-.138v-.389c0-.054.013-.101.053-.136a.196.196 0 01.143-.064h7.489c.058 0 .105.022.143.064"/><defs><path id="a" d="M46.295 18.484c-.614.934-1.669 1.396-2.745 1.565-.055.008-.114.017-.176.024-.167.02-.338.04-.529.055-.026.003-.054.003-.08.004-1.1.078-2.536.025-4.436-.159a119.785 119.785 0 01-5.2-.65c-.01-.002-.022-.002-.031-.003.969 1.608 1.666 3.453 2.376 5.188 1.027 2.504 1.599 5.781.64 8.356-1.365 3.665-3.111 6.748-4.855 10.536-.617 1.337-1.287 2.765-1.569 4.217-.238 1.223-.535 2.588.202 3.69.957 1.431 3.189 1.995 4.784 1.774.958-.129 2.103-.483 2.923-1.005 2.019-1.29 2.375-1.746 3.997-2.982.442-.369.879-.743 1.307-1.118.766-.667 1.549-1.362 2.338-2.077.008-.01.019-.016.027-.027 3.331-3.269 6.836-6.519 8.961-10.749a14.211 14.211 0 001.26-3.65c.051-.248.087-.498.119-.748.012-.106.028-.213.036-.319.031-.347.05-.694.042-1.035a10.327 10.327 0 00-.043-.712 8.762 8.762 0 00-.454-2.128c-.006-.013-.008-.024-.013-.036-1.274-3.314-3.758-6.058-6.166-8.602a59.219 59.219 0 00-.7-.72c-.345-.353-.697-.696-1.049-1.04-.305-.294-.606-.589-.914-.876a51.707 51.707 0 00-1.57-1.393c1.333 1.217 2.645 2.899 1.518 4.62"/></defs><clipPath id="b"><use xlink:href="#a" overflow="visible"/></clipPath><linearGradient id="c" gradientUnits="userSpaceOnUse" x1="3799.419" y1="3261.829" x2="3800.371" y2="3261.829" gradientTransform="scale(-42.9883 42.9883) rotate(74.9 4028.227 -849.864)"><stop offset="0" stop-color="#ee3e2d"/><stop offset=".013" stop-color="#ee3e2d"/><stop offset=".395" stop-color="#ef4b36"/><stop offset=".938" stop-color="#f16547"/><stop offset="1" stop-color="#f16547"/></linearGradient><path clip-path="url(#b)" fill="url(#c)" d="M65.614 16.54L53.893 59.977l-34.659-9.352 11.72-43.437z"/><defs><path id="d" d="M3.289 28.537c-.114.686-.141 1.432-.122 2.202a37.58 37.58 0 00.461 4.02c.075.412.153.814.233 1.208l.109.506a39.836 39.836 0 002.136 6.837c.224.533.462 1.058.71 1.577.106.228.207.457.321.682.375.75.768 1.486 1.191 2.2.075.124.158.248.236.37 2.617 3.954 6.232 7.173 11.109 8.777 6.202 2.046 12.425-1.051 17.923-4.839-.82.522-1.966.876-2.923 1.005-1.595.221-3.828-.343-4.784-1.774-.736-1.102-.44-2.468-.202-3.69.283-1.452.952-2.88 1.569-4.217.716-1.557 1.433-2.992 2.124-4.401-14.614 4.532-19.807-12.71-26.586-13.327a3.669 3.669 0 00-.343-.018c-1.698 0-2.883 1.199-3.162 2.882"/></defs><clipPath id="e"><use xlink:href="#d" overflow="visible"/></clipPath><linearGradient id="f" gradientUnits="userSpaceOnUse" x1="3726.686" y1="3344.903" x2="3727.638" y2="3344.903" gradientTransform="scale(43.0596 -43.0596) rotate(-50 -1723.805 5667.972)"><stop offset="0" stop-color="#b14599"/><stop offset=".282" stop-color="#9e4494"/><stop offset=".73" stop-color="#84428e"/><stop offset="1" stop-color="#7b418c"/></linearGradient><path clip-path="url(#e)" fill="url(#f)" d="M23.365 8.694l30.632 36.507-36.616 30.722-30.631-36.507z"/><defs><path id="g" d="M16.681 2.8C8.579 4.631 5.073 13.259 3.802 20.587a49.776 49.776 0 00-.702 6.785c-.027.77-.021 1.551.006 2.335.006.186.015.355.022.514.005.135.023.272.031.409.001-.011.001-.02.004-.03-.004-.252.005-.494.012-.739.004-.091 0-.186.007-.277.021-.36.052-.712.107-1.046.034-.206.084-.398.145-.586.021-.07.051-.136.075-.204.043-.11.086-.217.14-.319.041-.085.084-.165.132-.243a3.485 3.485 0 01.332-.471c.018-.021.04-.04.059-.062.417-.459.96-.778 1.601-.913h.001c.083-.021.168-.038.256-.05h.005c.056-.008.108-.013.164-.017h.004c.156-.011.317-.014.488 0h.043c.019 0 .039-.002.06 0 .204.019.404.053.604.101l.087.024c1.212.304 2.349 1.083 3.494 2.133 1.254 1.127 2.536 2.556 3.919 4.034 3.119-6.342 5.193-14.633 15.527-13.044 11.737 1.805 14.489 1.661 15.868-.437 1.07-1.633.036-3.153-1.176-4.319a50.369 50.369 0 00-3.007-2.445c-5.851-4.344-12.445-7.886-19.7-9.088a15 15 0 00-5.729.168"/></defs><clipPath id="h"><use xlink:href="#g" overflow="visible"/></clipPath><linearGradient id="i" gradientUnits="userSpaceOnUse" x1="3815.319" y1="3484.198" x2="3816.271" y2="3484.198" gradientTransform="scale(44.9273 -44.9273) rotate(40 6695.129 -3499.354)"><stop offset="0" stop-color="#faac18"/><stop offset=".04" stop-color="#faac18"/><stop offset=".705" stop-color="#fdc209"/><stop offset="1" stop-color="#ffce01"/></linearGradient><path clip-path="url(#h)" fill="url(#i)" d="M-11.47 14.635l40.535-34.013 32.841 39.141-40.534 34.013z"/></svg>